<svg width="171" height="155" viewBox="0 0 171 155" fill="none" xmlns="http://www.w3.org/2000/svg">
<path d="M111.758 57.1506C110.585 70.327 99.2864 80.6551 85.5233 80.6551C71.7691 80.6551 60.47 70.3256 59.2972 57.1506H40.498C40.7186 59.4942 41.4956 61.283 45.1719 62.0237C51.3049 63.2491 55.6107 73.1367 52.5449 78.0069C50.6593 81.0083 50.2985 83.2775 53.1204 85.9285C55.8896 88.5294 58.2894 90.8673 62.2066 87.7058C63.3138 86.8136 65.0153 86.6334 65.9399 86.3003C70.7394 86.3317 77.867 90.5985 78.6878 93.86C79.4985 97.1331 80.7794 99.2407 84.8004 99.0806C88.5438 98.9204 91.5161 99.1006 92.6656 94.2318C94.1116 88.1663 103.886 84.2312 109.055 87.274C112.51 89.3102 114.89 88.8383 117.545 86.0786C120.008 83.5091 121.227 81.5302 118.889 77.9054C115.37 72.4447 118.93 63.6495 125.277 62.1038C128.71 61.2601 130.064 59.7459 130.505 57.1506H111.758Z" fill="white"/>
<path d="M134.089 52.2046V54.0877H36.9109V52.2046C36.9109 52.0587 36.9197 51.9129 36.9343 51.7713C37.1577 49.3405 39.2434 47.4374 41.7848 47.4374H42.0025C42.3939 46.5194 42.6232 45.4841 42.7576 44.293C43.6924 35.9497 46.8297 28.663 51.9812 22.4573C51.9812 22.4573 51.9899 22.4459 52.0104 22.4244C52.3653 22.0298 55.9349 18.119 61.1025 14.3942C61.1054 14.3913 61.1112 14.3885 61.1171 14.3856C61.323 14.2369 61.5348 14.0925 61.7437 13.9438L61.7495 13.9523C62.5777 16.1043 65.9428 27.4018 68.1746 35.1189L68.2637 35.382C69.2642 37.9 72.5023 42.2512 78.3213 42.5815L92.6057 42.5843L92.6919 42.5815C98.5108 42.2512 101.749 37.9 102.749 35.382L102.839 35.1189C105.07 27.4018 108.434 16.1043 109.264 13.9523L109.284 13.9266C109.995 14.4213 110.682 14.9261 111.333 15.4266C114.192 17.6171 116.447 19.7577 117.764 21.0903C118.604 21.9382 119.067 22.4587 119.067 22.4587L119.007 22.5259C123.992 28.5472 127.084 35.6122 128.112 43.7068C128.298 45.1596 128.624 46.385 129.209 47.4388H129.224C130.984 47.4388 132.525 48.3511 133.379 49.7195C133.826 50.4415 134.089 51.2952 134.089 52.2046Z" fill="white"/>
<path d="M70.7016 15.6954C72.1622 20.5785 73.5965 27.1974 73.8915 28.2055C74.1573 28.7703 75.5492 31.3698 78.5843 31.5828H92.4175C95.4526 31.3698 96.8445 28.7703 97.1103 28.2055C97.4054 27.1988 98.8397 20.5785 100.3 15.6954C100.99 13.3833 101.588 11.4115 102.089 9.79999C101.568 9.56835 101.039 9.34958 100.506 9.14511C99.9205 8.78192 99.177 8.51024 98.2569 8.32864C98.2174 8.32007 98.1736 8.31149 98.1342 8.30291C97.7544 8.19138 97.3396 8.09557 96.8971 8.01979C96.7291 7.98833 96.5597 7.9583 96.3917 7.92971C94.4345 7.42353 92.7417 6.49982 92.7052 3.63148C92.6965 3.08526 91.0869 2.16013 90.1696 2.09864C89.9038 2.07862 89.638 2.06289 89.3693 2.0486C89.2889 2.03144 89.2086 2.02286 89.1326 2.01714C86.1282 1.8241 83.0844 1.90847 80.0814 2.15441C79.1642 2.23019 77.5663 3.18106 77.5663 3.72728C77.5722 6.78294 75.6661 7.65803 73.5541 8.17565C73.5483 8.17851 73.5395 8.17851 73.5336 8.17851C73.5015 8.18709 73.4708 8.18995 73.4387 8.19852C73.1364 8.25429 72.8472 8.31864 72.5726 8.39442C72.5697 8.39442 72.5667 8.39728 72.5638 8.39728C72.4032 8.43017 72.244 8.46162 72.0833 8.49737C71.0258 8.72186 70.2079 9.05932 69.5945 9.51831H69.5915C69.3652 9.61268 69.1417 9.71563 68.9182 9.81572C69.4163 11.4258 70.0136 13.3933 70.7016 15.6954Z" fill="white"/>
<path d="M18.72 141.089H11.2V114.289H18.72V141.089ZM34.56 131.769H13.24V125.049H34.56V131.769ZM35.16 121.049H13.24V114.289H35.16V121.049ZM43.9775 141.089H35.5375L47.0975 114.289H57.8575L69.4575 141.089H60.8175L54.4575 125.609L52.6975 121.089H52.1775L50.4575 125.609L43.9775 141.089ZM62.1375 136.129H42.3775V129.369H62.1375V136.129ZM77.7825 141.089H70.2625V114.289H85.9025C88.2758 114.289 90.2625 114.609 91.8625 115.249C93.4625 115.889 94.6625 116.822 95.4625 118.049C96.2892 119.249 96.7025 120.729 96.7025 122.489C96.7025 123.902 96.4492 125.129 95.9425 126.169C95.4625 127.182 94.6892 128.009 93.6225 128.649C92.5558 129.262 91.1692 129.676 89.4625 129.889V130.289C90.8492 130.636 91.8358 131.156 92.4225 131.849C93.0358 132.516 93.5958 133.356 94.1025 134.369L97.4225 141.089H88.7425L85.5425 134.529C85.2225 133.862 84.8892 133.342 84.5425 132.969C84.1958 132.596 83.7425 132.342 83.1825 132.209C82.6225 132.049 81.8492 131.969 80.8625 131.969H77.7825V141.089ZM77.7825 121.049V126.369H85.8225C86.9158 126.369 87.6892 126.209 88.1425 125.889C88.5958 125.569 88.8225 124.836 88.8225 123.689C88.8225 122.622 88.5958 121.916 88.1425 121.569C87.6892 121.222 86.9158 121.049 85.8225 121.049H77.7825ZM111.582 141.489C108.782 141.489 106.382 140.929 104.382 139.809C102.382 138.662 100.849 137.062 99.7819 135.009C98.7419 132.929 98.2219 130.489 98.2219 127.689C98.2219 124.889 98.8352 122.462 100.062 120.409C101.289 118.329 103.062 116.729 105.382 115.609C107.702 114.462 110.489 113.889 113.742 113.889C116.782 113.889 119.382 114.316 121.542 115.169C123.702 116.022 125.355 117.249 126.502 118.849C127.649 120.422 128.222 122.316 128.222 124.529V124.809H119.822V124.529C119.822 123.276 119.369 122.396 118.462 121.889C117.555 121.356 115.915 121.089 113.542 121.089C111.622 121.089 110.129 121.276 109.062 121.649C108.022 121.996 107.289 122.649 106.862 123.609C106.435 124.542 106.222 125.902 106.222 127.689C106.222 129.449 106.422 130.809 106.822 131.769C107.222 132.729 107.915 133.396 108.902 133.769C109.915 134.116 111.329 134.289 113.142 134.289C115.302 134.289 116.929 134.222 118.022 134.089C119.115 133.929 119.835 133.609 120.182 133.129C120.555 132.622 120.742 131.849 120.742 130.809V129.329L128.262 129.169V129.729L121.742 135.369H120.862C120.622 136.409 120.169 137.396 119.502 138.329C118.862 139.262 117.902 140.022 116.622 140.609C115.369 141.196 113.689 141.489 111.582 141.489ZM128.262 141.089H121.262V133.449L120.742 132.609V126.809H128.262V141.089ZM128.262 131.969H112.422V126.449H128.262V131.969ZM144.937 141.489C141.844 141.489 139.177 140.929 136.937 139.809C134.724 138.662 133.03 137.062 131.857 135.009C130.684 132.929 130.097 130.489 130.097 127.689C130.097 124.889 130.684 122.462 131.857 120.409C133.03 118.329 134.724 116.729 136.937 115.609C139.177 114.462 141.844 113.889 144.937 113.889C148.137 113.889 150.844 114.462 153.057 115.609C155.297 116.729 157.004 118.329 158.177 120.409C159.35 122.462 159.937 124.889 159.937 127.689C159.937 130.489 159.35 132.929 158.177 135.009C157.004 137.062 155.297 138.662 153.057 139.809C150.844 140.929 148.137 141.489 144.937 141.489ZM144.937 134.289C146.75 134.289 148.164 134.116 149.177 133.769C150.19 133.396 150.897 132.729 151.297 131.769C151.724 130.809 151.937 129.449 151.937 127.689C151.937 125.902 151.724 124.542 151.297 123.609C150.897 122.649 150.19 121.996 149.177 121.649C148.164 121.276 146.75 121.089 144.937 121.089C143.124 121.089 141.724 121.276 140.737 121.649C139.75 121.996 139.057 122.649 138.657 123.609C138.284 124.542 138.097 125.902 138.097 127.689C138.097 129.449 138.284 130.809 138.657 131.769C139.057 132.729 139.75 133.396 140.737 133.769C141.724 134.116 143.124 134.289 144.937 134.289Z" fill="white"/>
</svg>
