<svg width="40" height="41" viewBox="0 0 40 41" fill="none" xmlns="http://www.w3.org/2000/svg">
<path d="M30.8083 23.2375C30.3256 28.6611 25.6747 32.9123 20.0096 32.9123C14.3482 32.9123 9.69732 28.6605 9.21456 23.2375H1.47656C1.56734 24.2022 1.88718 24.9385 3.40039 25.2433C5.92481 25.7477 7.69714 29.8176 6.43523 31.8223C5.65909 33.0577 5.51059 33.9917 6.6721 35.0829C7.81197 36.1535 8.79974 37.1158 10.4121 35.8145C10.8679 35.4472 11.5682 35.3731 11.9488 35.2359C13.9243 35.2489 16.8582 37.0051 17.196 38.3477C17.5297 39.6949 18.057 40.5624 19.7121 40.4965C21.2529 40.4306 22.4764 40.5047 22.9495 38.5007C23.5447 36.004 27.5679 34.3843 29.6955 35.6367C31.118 36.4749 32.0973 36.2806 33.1903 35.1447C34.2039 34.0871 34.7059 33.2725 33.7434 31.7805C32.2951 29.5328 33.7602 25.9125 36.373 25.2763C37.7858 24.929 38.3431 24.3058 38.5247 23.2375H30.8083Z" fill="#C9A024"/>
<path d="M40 21.2016V21.9768H0V21.2016C0 21.1416 0.00360713 21.0816 0.00961909 21.0233C0.101602 20.0228 0.960111 19.2394 2.00619 19.2394H2.09577C2.25689 18.8615 2.35128 18.4354 2.40659 17.9451C2.79136 14.5109 4.08272 11.5116 6.20314 8.95721C6.20314 8.95721 6.20675 8.9525 6.21517 8.94368C6.36126 8.78123 7.83058 7.17152 9.95762 5.63831C9.95882 5.63714 9.96122 5.63596 9.96363 5.63478C10.0484 5.57357 10.1356 5.51413 10.2215 5.45292L10.2239 5.45645C10.5648 6.34223 11.95 10.9925 12.8686 14.1689L12.9053 14.2772C13.3171 15.3137 14.65 17.1047 17.0451 17.2406L22.9248 17.2418L22.9603 17.2406C25.3555 17.1047 26.6883 15.3137 27.1001 14.2772L27.1368 14.1689C28.0554 10.9925 29.44 6.34223 29.7815 5.45645L29.7899 5.44585C30.0827 5.6495 30.3652 5.85726 30.6334 6.06326C31.8099 6.96493 32.7381 7.84601 33.2804 8.39455C33.6261 8.74356 33.8167 8.9578 33.8167 8.9578L33.792 8.98546C35.8439 11.4639 37.1167 14.372 37.5399 17.7038C37.6163 18.3018 37.7503 18.8062 37.9914 19.24H37.9974C38.7219 19.24 39.3561 19.6155 39.7078 20.1787C39.8918 20.4759 40 20.8273 40 21.2016Z" fill="#C9A024"/>
<path d="M13.9089 6.17391C14.5101 8.18385 15.1004 10.9083 15.2219 11.3232C15.3313 11.5557 15.9042 12.6257 17.1535 12.7134H22.8475C24.0967 12.6257 24.6697 11.5557 24.7791 11.3232C24.9005 10.9089 25.4909 8.18385 26.0921 6.17391C26.3759 5.22221 26.6224 4.41058 26.8286 3.74727C26.6139 3.65193 26.3963 3.56188 26.1769 3.47771C25.9358 3.32822 25.6298 3.21639 25.251 3.14164C25.2348 3.13811 25.2168 3.13458 25.2005 3.13105C25.0442 3.08514 24.8735 3.04571 24.6913 3.01451C24.6222 3.00157 24.5524 2.98921 24.4833 2.97744C23.6777 2.76908 22.9809 2.38887 22.9659 1.20822C22.9623 0.983389 22.2998 0.60259 21.9222 0.577282C21.8128 0.569042 21.7034 0.562568 21.5928 0.556682C21.5597 0.549619 21.5266 0.546088 21.4954 0.543734C20.2587 0.464278 19.0058 0.499003 17.7697 0.600236C17.3922 0.631429 16.7345 1.02282 16.7345 1.24765C16.7369 2.50541 15.9523 2.86561 15.083 3.07867C15.0806 3.07984 15.077 3.07984 15.0746 3.07984C15.0614 3.08338 15.0487 3.08455 15.0355 3.08808C14.9111 3.11104 14.792 3.13752 14.679 3.16872C14.6778 3.16872 14.6766 3.16989 14.6754 3.16989C14.6093 3.18343 14.5437 3.19638 14.4776 3.21109C14.0423 3.3035 13.7057 3.4424 13.4532 3.63133H13.452C13.3588 3.67017 13.2668 3.71255 13.1748 3.75375C13.3798 4.41647 13.6257 5.22633 13.9089 6.17391Z" fill="#C9A024"/>
</svg>
